<svg version="1.2" xmlns="http://www.w3.org/2000/svg" viewBox="0 0 1549 1244" width="1549" height="1244">
	<title>CXM_BIG</title>
	<style>
		.s0 { fill: #faa31a } 
		.s1 { fill: #70bf54 } 
		.s2 { fill: #00bae8 } 
		.s3 { fill: #128acc } 
	</style>
	<path class="s0" d="m110.3 215.8c4.9-71 64.7-134.2 145.5-128.9 22.4 1.5 49.4 3.3 89 33.2 179.9 155.9 285.7 431.9 253.6 670-1.5 11.6-15 11.2-18.4 0-50.5-170.8-216.5-367.1-364.2-425.8-70-27.7-110-78.9-105.5-148.5z"/>
	<path class="s1" d="m572.2 1056.3c-44.9-150.3-273-398.5-438.7-398.5-86.4 0-137.6 71.7-133.1 138.3 5.2 82.3 74 122.3 137.2 122.3 142.5 0 313.8 60.9 420.4 147.3 7.1 5.6 17.2 0.7 14.2-9.4z"/>
	<path class="s2" d="m778.6 1235c-1.5 11.6-14.9 10.9-18.3 0-187.8-587 149.6-1228.9 400.9-1234.9 132.7-3 224 93.5 224 202.3 0 74.4-24.3 134.6-111.4 183.6-220.7 124.1-466 442.3-495.2 849z"/>
	<path class="s3" d="m991 1065.3c-7.5 6-17.5 1.1-14.6-9 44.9-150.3 272.7-398.5 438.7-398.5 86.4 0 137.6 71.7 133.2 138.3-5.7 81.9-74.1 122.3-137.3 122.3-139.5 0-313 63.1-420 146.9z"/>
</svg>