<svg width="158" height="208" viewBox="0 0 158 208" fill="none" xmlns="http://www.w3.org/2000/svg">
<g clip-path="url(#clip0_2455_602)">
<path d="M72.3543 54.3828C70.7001 57.2721 68.8022 60.7227 66.5516 64.7553C66.2738 65.2428 66.0316 65.7437 65.8628 66.2106C63.8822 70.0584 64.2612 74.9057 67.2164 78.4697C68.3497 79.8283 69.7088 80.843 71.2093 81.5231" fill="#FEFFFC"/>
<path d="M72.3543 54.3828C70.7001 57.2721 68.8022 60.7227 66.5516 64.7553C66.2738 65.2428 66.0317 65.7437 65.8628 66.2106C63.8822 70.0584 64.2612 74.9057 67.2164 78.4697C68.3497 79.8283 69.7088 80.843 71.2093 81.5231" stroke="#E9850C" stroke-width="1.26699" stroke-linecap="round" stroke-linejoin="round"/>
<path d="M36.6096 67.9252L19.5469 56.8746C17.2958 55.4061 14.2782 56.0567 12.8692 58.3241C11.4244 60.5783 12.0919 63.6178 14.3559 65.0504L33.3616 78.7564" fill="#FEFFFC"/>
<path d="M136.5 127.415C136.5 127.415 82.7707 77.0355 82.8274 76.7102C82.8404 76.6743 82.829 76.6496 82.829 76.6496C83.4384 73.168 84.1238 69.0831 84.8061 65.1192C85.365 61.819 85.9112 58.617 86.369 55.9394C86.9953 52.276 88.5784 48.8433 90.9566 45.9873L92.3526 44.3108C94.2432 42.0594 93.839 38.6288 91.4397 36.8403C89.2406 35.228 86.1432 35.7063 84.3892 37.8047L78.9775 44.2889C78.8035 44.4891 78.641 44.7139 78.5142 44.952C76.3552 47.3277 75.001 49.5178 71.4097 55.9657C71.4097 55.9657 66.0135 48.9363 62.7508 44.5768C55.9233 35.4543 49.0874 21.5921 47.7924 19.3143C46.2326 16.5705 43.7203 15.7155 41.305 16.8346C38.8898 17.9537 37.8374 20.8632 38.9666 23.3001L51.0104 49.2937C51.1814 49.663 51.1101 50.0847 50.8142 50.3414L50.4565 50.6566C50.0988 50.9719 49.5212 50.9405 49.2053 50.5786L27.9951 26.739C26.1341 24.6412 22.8834 24.5329 20.9145 26.5514C19.1066 28.4057 19.1607 31.4004 20.8931 33.3485L41.986 57.063C42.3019 57.425 42.2746 58.0056 41.9169 58.3209C41.6079 58.6135 41.1622 58.6107 40.8188 58.3812C37.1043 55.7369 16.8163 41.3071 16.8163 41.3071C14.5213 39.6795 11.3475 40.3128 9.88651 42.7239C8.53926 44.9328 9.27011 47.8533 11.3878 49.3538L36.6096 67.9252C36.2892 68.1933 33.2389 65.7503 32.8955 65.5207L19.5536 56.8723M36.6096 67.9252L19.5469 56.8746C17.2958 55.4061 14.2782 56.0567 12.8692 58.3241C11.4244 60.5783 12.0919 63.6178 14.3559 65.0504L33.3616 78.7564L46.5906 92.1493L124.5 186.915" stroke="#E9850C" stroke-width="1.26699" stroke-linecap="round" stroke-linejoin="round"/>
</g>
<defs>
<clipPath id="clip0_2455_602">
<rect width="85.3752" height="189.369" fill="white" transform="matrix(-0.907338 0.420402 0.420402 0.907338 77.4642 0)"/>
</clipPath>
</defs>
</svg>
