<svg width="85" height="61" viewBox="0 0 85 61" fill="none" xmlns="http://www.w3.org/2000/svg">
<g clip-path="url(#clip0_2455_620)">
<path d="M21.6343 17.1507L15.5697 7.21162C14.3417 5.19898 16.2799 2.74464 18.5224 3.47277L50.2558 13.7765C50.7016 13.9213 51.0986 14.1866 51.403 14.543L72.0999 38.7818C73.6303 40.5741 72.1067 43.3032 69.778 42.941L58.5972 41.2022" stroke="#E9850C" stroke-width="1.26699" stroke-linecap="round" stroke-linejoin="round"/>
<path d="M59.3065 38.4254C59.1182 38.7212 59.2036 39.1164 59.4972 39.308C59.7909 39.4997 60.1817 39.4153 60.3701 39.1194L59.8383 38.7724L59.3065 38.4254ZM22.608 15.0241C22.4197 15.3199 22.5051 15.7151 22.7988 15.9068C23.0924 16.0984 23.4832 16.014 23.6716 15.7182L23.1398 15.3712L22.608 15.0241ZM60.4793 38.9442C60.6659 38.6473 60.5781 38.2526 60.2833 38.0627C59.9885 37.8729 59.5982 37.9597 59.4116 38.2566L59.9455 38.6004L60.4793 38.9442ZM51.6027 50.6849C51.4161 50.9819 51.5039 51.3766 51.7987 51.5664C52.0935 51.7563 52.4838 51.6695 52.6704 51.3725L52.1366 51.0287L51.6027 50.6849ZM14.8172 26.8671C14.6244 27.16 14.7039 27.5564 14.9947 27.7525C15.2855 27.9486 15.6776 27.8702 15.8703 27.5773L15.3438 27.2222L14.8172 26.8671ZM23.6622 15.7383C23.8549 15.4454 23.7754 15.049 23.4846 14.8529C23.1938 14.6568 22.8018 14.7352 22.609 15.0281L23.1356 15.3832L23.6622 15.7383ZM14.6452 27.1018C14.4568 27.3976 14.5422 27.7928 14.8359 27.9845C15.1296 28.1761 15.5204 28.0917 15.7087 27.7959L15.1769 27.4488L14.6452 27.1018ZM51.398 51.0869C51.2096 51.3827 51.295 51.7779 51.5887 51.9695C51.8824 52.1612 52.2731 52.0768 52.4615 51.7809L51.9297 51.4339L51.398 51.0869ZM23.1398 15.3712L23.6716 15.7182C24.109 15.0314 24.9756 14.5358 26.3276 14.334C27.6725 14.1333 29.4074 14.2399 31.4225 14.6682C35.4476 15.5235 40.4618 17.634 45.441 20.8834L45.782 20.3478L46.1231 19.8122C41.0408 16.4954 35.8831 14.3129 31.6771 13.4191C29.5766 12.9727 27.6811 12.8408 26.1372 13.0713C24.6004 13.3007 23.3199 13.9062 22.608 15.0241L23.1398 15.3712ZM45.782 20.3478L45.441 20.8834C50.4274 24.1376 54.4565 27.7946 56.9454 31.057C58.1917 32.6906 59.0297 34.1965 59.4231 35.4804C59.8178 36.7681 59.7414 37.7424 59.3065 38.4254L59.8383 38.7724L60.3701 39.1194C61.0844 37.9977 61.0833 36.5873 60.63 35.108C60.1754 33.6248 59.2423 31.9814 57.9448 30.2807C55.3464 26.8748 51.1982 23.1242 46.1231 19.8122L45.782 20.3478ZM59.9455 38.6004L59.4116 38.2566L51.6027 50.6849L52.1366 51.0287L52.6704 51.3725L60.4793 38.9442L59.9455 38.6004ZM15.3438 27.2222L15.8703 27.5773L23.6622 15.7383L23.1356 15.3832L22.609 15.0281L14.8172 26.8671L15.3438 27.2222ZM15.1769 27.4488L15.7087 27.7959C16.1656 27.0784 17.0389 26.5834 18.3825 26.3969C19.7236 26.2107 21.4497 26.347 23.4594 26.8118C27.4734 27.7403 32.4802 29.9469 37.5092 33.2289L37.8503 32.6933L38.1914 32.1576C33.0714 28.8163 27.9281 26.5373 23.736 25.5677C21.6426 25.0834 19.7517 24.9176 18.2048 25.1323C16.6604 25.3467 15.3749 25.9558 14.6452 27.1018L15.1769 27.4488ZM37.8503 32.6933L37.5092 33.2289C42.5383 36.5109 46.5907 40.2163 49.0832 43.5341C50.3312 45.1952 51.1665 46.7305 51.5527 48.0439C51.9396 49.3598 51.8548 50.3694 51.398 51.0869L51.9297 51.4339L52.4615 51.7809C53.1912 50.6349 53.2085 49.1982 52.7637 47.6857C52.3183 46.1707 51.3884 44.4957 50.0884 42.7654C47.4852 39.3004 43.3113 35.499 38.1914 32.1576L37.8503 32.6933Z" fill="#E9850C"/>
<path d="M68.6163 42.9022V53.1202C68.6163 53.1202 67.0077 56.5101 67.0077 57.2511C67.0077 58.249 68.2081 58.6967 69.6888 58.6967C71.1695 58.6967 72.3699 58.249 72.3699 57.2511C72.3699 56.5101 70.7612 53.1202 70.7612 53.1202V42.996" stroke="#E9850C" stroke-width="1.27" stroke-linecap="round" stroke-linejoin="round"/>
</g>
<defs>
<clipPath id="clip0_2455_620">
<rect width="76.3488" height="36.5044" fill="white" transform="translate(12.4879) rotate(20.0044)"/>
</clipPath>
</defs>
</svg>
