<svg width="53" height="44" viewBox="0 0 53 44" fill="none" xmlns="http://www.w3.org/2000/svg">
<g clip-path="url(#clip0_2455_624)">
<path d="M24.3959 25.7928C17.499 21.2771 10.5969 18.7501 6.13627 18.7756L15.473 7.35538C19.914 7.74642 26.2024 9.39497 32.478 13.5039C36.5939 16.1988 38.858 18.3134 41.3829 21.165L38.8548 41.7481C38.0664 37.4562 32.4439 31.0622 24.3959 25.7928Z" fill="#FEFFFC"/>
<path d="M6.12886 18.1366C5.78045 18.1386 5.50124 18.4263 5.50524 18.7792C5.50924 19.1322 5.79493 19.4167 6.14334 19.4147L6.1361 18.7756L6.12886 18.1366ZM38.2344 41.8614C38.2982 42.2088 38.6276 42.4396 38.9702 42.377C39.3127 42.3144 39.5387 41.982 39.4749 41.6347L38.8546 41.7481L38.2344 41.8614ZM9.26665 7.92968C9.07871 8.22577 9.1642 8.62153 9.4576 8.81363C9.75101 9.00574 10.1412 8.92145 10.3292 8.62536L9.79791 8.27752L9.26665 7.92968ZM42.1317 22.4645C42.365 22.7281 42.7639 22.7513 43.0227 22.5165C43.2815 22.2817 43.3022 21.8777 43.0688 21.6142L42.6003 22.0394L42.1317 22.4645ZM6.1361 18.7756L6.14334 19.4147C10.4239 19.3902 17.2007 21.8408 24.0554 26.3289L24.3957 25.7928L24.736 25.2567C17.797 20.7134 10.7695 18.11 6.12886 18.1366L6.1361 18.7756ZM24.3957 25.7928L24.0554 26.3289C28.0404 28.9381 31.4141 31.819 33.882 34.5657C36.367 37.3313 37.8729 39.8934 38.2344 41.8614L38.8546 41.7481L39.4749 41.6347C39.048 39.3108 37.3483 36.5301 34.813 33.7084C32.2605 30.8677 28.7991 27.917 24.736 25.2567L24.3957 25.7928ZM9.79791 8.27752L10.3292 8.62536C10.7897 7.8999 11.6669 7.39986 13.0117 7.2093C14.3544 7.01905 16.0815 7.1524 18.0916 7.61559C22.1063 8.54076 27.112 10.7495 32.1375 14.04L32.4778 13.5039L32.8182 12.9678C27.7011 9.61742 22.5584 7.33579 18.3646 6.36938C16.2704 5.88678 14.3782 5.72405 12.8298 5.94347C11.2835 6.16257 9.99774 6.77794 9.26665 7.92968L9.79791 8.27752ZM32.4778 13.5039L32.1375 14.04C36.2137 16.7089 39.6501 19.662 42.1317 22.4645L42.6003 22.0394L43.0688 21.6142C40.5005 18.7137 36.9738 15.6887 32.8182 12.9678L32.4778 13.5039Z" fill="#E9850C"/>
</g>
<defs>
<clipPath id="clip0_2455_624">
<rect width="45.6745" height="29.375" fill="white" transform="translate(10.0491) rotate(20.0044)"/>
</clipPath>
</defs>
</svg>
